<mxfile host="65bd71144e">
    <diagram id="Hvg_vFcXe_EE8H56llz_" name="Page-1">
        <mxGraphModel dx="2199" dy="726" grid="1" gridSize="10" guides="1" tooltips="1" connect="1" arrows="1" fold="1" page="1" pageScale="1" pageWidth="850" pageHeight="1100" math="0" shadow="0">
            <root>
                <mxCell id="0"/>
                <mxCell id="1" parent="0"/>
                <mxCell id="2" value="&lt;li&gt;&lt;p&gt;&lt;strong&gt;User Authentication Options:&lt;/strong&gt;&lt;/p&gt;&lt;ul&gt;&lt;li&gt;&lt;strong&gt;Username and password&lt;/strong&gt; using a local strategy (&lt;code&gt;passport-local&lt;/code&gt;).&lt;/li&gt;&lt;li&gt;&lt;strong&gt;Google OAuth&lt;/strong&gt; using &lt;code&gt;passport-google-oauth20&lt;/code&gt;.&lt;/li&gt;&lt;/ul&gt;&lt;/li&gt;&lt;li&gt;&lt;p&gt;&lt;strong&gt;JWT for API Access:&lt;/strong&gt;&lt;/p&gt;&lt;ul&gt;&lt;li&gt;Generate a JWT on successful login.&lt;/li&gt;&lt;li&gt;Send the JWT as an HTTP-only cookie to the client.&lt;/li&gt;&lt;li&gt;Use the JWT for guarding API routes.&lt;/li&gt;&lt;/ul&gt;&lt;/li&gt;&lt;li&gt;&lt;p&gt;&lt;strong&gt;Authorization:&lt;/strong&gt;&lt;/p&gt;&lt;ul&gt;&lt;li&gt;Implement route guards using &lt;code&gt;@nestjs/passport&lt;/code&gt; and &lt;code&gt;@nestjs/jwt&lt;/code&gt;.&lt;/li&gt;&lt;/ul&gt;&lt;/li&gt;" style="rounded=0;whiteSpace=wrap;html=1;fillColor=#1ba1e2;fontColor=#ffffff;strokeColor=#006EAF;" parent="1" vertex="1">
                    <mxGeometry x="20" y="30" width="430" height="390" as="geometry"/>
                </mxCell>
                <mxCell id="3" value="&lt;h3&gt;&lt;strong&gt;2. Setup Unified Login Flow&lt;/strong&gt;&lt;/h3&gt;&lt;h4&gt;&lt;strong&gt;For Email/Password Authentication&lt;/strong&gt;&lt;/h4&gt;&lt;ol&gt;&lt;li&gt;Validate the email and password from the database.&lt;/li&gt;&lt;li&gt;If valid, generate a JWT and return it.&lt;/li&gt;&lt;/ol&gt;&lt;h4&gt;&lt;strong&gt;For OAuth Authentication&lt;/strong&gt;&lt;/h4&gt;&lt;ol&gt;&lt;li&gt;After OAuth provider validation, use the user's email (from the provider) to find or create a user in your database.&lt;/li&gt;&lt;li&gt;Generate a JWT based on the email and return it.&lt;/li&gt;&lt;/ol&gt;" style="rounded=0;whiteSpace=wrap;html=1;fillColor=#60a917;fontColor=#ffffff;strokeColor=#2D7600;" parent="1" vertex="1">
                    <mxGeometry x="300" y="60" width="460" height="390" as="geometry"/>
                </mxCell>
                <mxCell id="4" value="&lt;li&gt;&lt;p&gt;&lt;strong&gt;Email/Password&lt;/strong&gt;:&lt;/p&gt;&lt;ul&gt;&lt;li&gt;User submits credentials to &lt;code&gt;/auth/login&lt;/code&gt;.&lt;/li&gt;&lt;li&gt;Server validates the credentials and generates a JWT.&lt;/li&gt;&lt;li&gt;JWT is sent back as an HTTP-only cookie.&lt;/li&gt;&lt;/ul&gt;&lt;/li&gt;&lt;li&gt;&lt;p&gt;&lt;strong&gt;OAuth (e.g., Google)&lt;/strong&gt;:&lt;/p&gt;&lt;ul&gt;&lt;li&gt;User clicks &quot;Login with Google&quot; and is redirected to Google.&lt;/li&gt;&lt;li&gt;After successful authentication, Google redirects the user to &lt;code&gt;/auth/google/callback&lt;/code&gt;.&lt;/li&gt;&lt;li&gt;Server generates a JWT and sends it back as an HTTP-only cookie.&lt;/li&gt;&lt;/ul&gt;&lt;/li&gt;&lt;li&gt;&lt;p&gt;&lt;strong&gt;Protected Routes&lt;/strong&gt;:&lt;/p&gt;&lt;ul&gt;&lt;li&gt;Client includes the JWT (via cookie) in subsequent API requests.&lt;/li&gt;&lt;li&gt;&lt;code&gt;JwtAuthGuard&lt;/code&gt; validates the JWT and allows access to protected resources.&lt;/li&gt;&lt;/ul&gt;&lt;/li&gt;" style="rounded=0;whiteSpace=wrap;html=1;fillColor=#6a00ff;fontColor=#ffffff;strokeColor=#3700CC;" parent="1" vertex="1">
                    <mxGeometry x="260" y="470" width="520" height="440" as="geometry"/>
                </mxCell>
                <mxCell id="6" value="user supplies email &amp;amp; password in sighn in page" style="ellipse;whiteSpace=wrap;html=1;fillColor=#f5f5f5;strokeColor=#666666;fontColor=#333333;" parent="1" vertex="1">
                    <mxGeometry x="-670" y="330" width="140" height="100" as="geometry"/>
                </mxCell>
                <mxCell id="8" value="Email/Password&lt;br&gt;User Login" style="rounded=0;whiteSpace=wrap;html=1;fillColor=#76608a;fontColor=#ffffff;strokeColor=#432D57;" vertex="1" parent="1">
                    <mxGeometry x="-660" y="200" width="120" height="60" as="geometry"/>
                </mxCell>
                <mxCell id="16" value="" style="edgeStyle=none;html=1;" edge="1" parent="1" source="9" target="10">
                    <mxGeometry relative="1" as="geometry"/>
                </mxCell>
                <mxCell id="9" value="OAuth&lt;br&gt;User Login" style="rounded=0;whiteSpace=wrap;html=1;fillColor=#6d8764;fontColor=#ffffff;strokeColor=#3A5431;" vertex="1" parent="1">
                    <mxGeometry x="-390" y="200" width="120" height="60" as="geometry"/>
                </mxCell>
                <mxCell id="10" value="user clicks oauth provider button" style="ellipse;whiteSpace=wrap;html=1;fillColor=#f5f5f5;fontColor=#333333;strokeColor=#666666;" vertex="1" parent="1">
                    <mxGeometry x="-405" y="330" width="150" height="100" as="geometry"/>
                </mxCell>
                <mxCell id="11" value="User email and hashed password is validated against database." style="rounded=0;whiteSpace=wrap;html=1;fillColor=#76608a;strokeColor=#432D57;fontColor=#ffffff;" vertex="1" parent="1">
                    <mxGeometry x="-697.5" y="560" width="195" height="110" as="geometry"/>
                </mxCell>
                <mxCell id="13" value="" style="endArrow=classic;html=1;exitX=0.5;exitY=1;exitDx=0;exitDy=0;entryX=0.5;entryY=0;entryDx=0;entryDy=0;fillColor=#e3c800;strokeColor=#B09500;strokeWidth=3;" edge="1" parent="1" source="8" target="6">
                    <mxGeometry width="50" height="50" relative="1" as="geometry">
                        <mxPoint x="-50" y="350" as="sourcePoint"/>
                        <mxPoint x="-620" y="320" as="targetPoint"/>
                    </mxGeometry>
                </mxCell>
                <mxCell id="14" value="" style="endArrow=classic;html=1;exitX=0.5;exitY=1;exitDx=0;exitDy=0;entryX=0.5;entryY=0;entryDx=0;entryDy=0;fillColor=#e3c800;strokeColor=#B09500;strokeWidth=3;" edge="1" parent="1" source="6" target="11">
                    <mxGeometry width="50" height="50" relative="1" as="geometry">
                        <mxPoint x="-50" y="350" as="sourcePoint"/>
                        <mxPoint y="300" as="targetPoint"/>
                    </mxGeometry>
                </mxCell>
                <mxCell id="15" value="" style="endArrow=classic;html=1;exitX=0.5;exitY=1;exitDx=0;exitDy=0;fillColor=#e3c800;strokeColor=#B09500;strokeWidth=3;" edge="1" parent="1" source="9" target="10">
                    <mxGeometry width="50" height="50" relative="1" as="geometry">
                        <mxPoint x="-320" y="270" as="sourcePoint"/>
                        <mxPoint y="300" as="targetPoint"/>
                    </mxGeometry>
                </mxCell>
                <mxCell id="18" value="short lived(30 min) JWT access token&amp;nbsp;&lt;br&gt;and long lived(7 day) refresh token are&lt;br&gt;generated and provided in httpOnly&lt;br&gt;response to UI to hold.&lt;br&gt;&lt;br&gt;access token is used for accessing guarded&amp;nbsp;&lt;br&gt;API routes." style="rounded=0;whiteSpace=wrap;html=1;fillColor=#a0522d;fontColor=#ffffff;strokeColor=#6D1F00;" vertex="1" parent="1">
                    <mxGeometry x="-640" y="780" width="280" height="130" as="geometry"/>
                </mxCell>
                <mxCell id="19" value="" style="endArrow=classic;html=1;exitX=0.5;exitY=1;exitDx=0;exitDy=0;entryX=0.5;entryY=0;entryDx=0;entryDy=0;fillColor=#e3c800;strokeColor=#B09500;strokeWidth=3;" edge="1" parent="1" source="11" target="18">
                    <mxGeometry width="50" height="50" relative="1" as="geometry">
                        <mxPoint x="-50" y="540" as="sourcePoint"/>
                        <mxPoint y="490" as="targetPoint"/>
                    </mxGeometry>
                </mxCell>
                <mxCell id="30" value="Redirect page to api controller associated with oauth provider login" style="shape=hexagon;perimeter=hexagonPerimeter2;whiteSpace=wrap;html=1;fixedSize=1;fillColor=#e6d0de;strokeColor=#996185;gradientColor=#d5739d;" vertex="1" parent="1">
                    <mxGeometry x="-160" y="430" width="240" height="80" as="geometry"/>
                </mxCell>
                <mxCell id="31" value="api receives response, validates oauth profile against database user.&amp;nbsp;" style="rounded=0;whiteSpace=wrap;html=1;fillColor=#6d8764;strokeColor=#3A5431;fontColor=#ffffff;" vertex="1" parent="1">
                    <mxGeometry x="-412.5" y="565" width="165" height="100" as="geometry"/>
                </mxCell>
                <mxCell id="33" value="" style="endArrow=classic;html=1;strokeWidth=3;exitX=0.5;exitY=1;exitDx=0;exitDy=0;entryX=0.5;entryY=0;entryDx=0;entryDy=0;fillColor=#e3c800;strokeColor=#B09500;" edge="1" parent="1" source="30" target="31">
                    <mxGeometry width="50" height="50" relative="1" as="geometry">
                        <mxPoint x="-180" y="550" as="sourcePoint"/>
                        <mxPoint x="-140" y="490" as="targetPoint"/>
                    </mxGeometry>
                </mxCell>
                <mxCell id="34" value="" style="endArrow=classic;html=1;strokeWidth=3;exitX=0.5;exitY=1;exitDx=0;exitDy=0;entryX=0.5;entryY=0;entryDx=0;entryDy=0;fillColor=#e3c800;strokeColor=#B09500;" edge="1" parent="1" source="31" target="18">
                    <mxGeometry width="50" height="50" relative="1" as="geometry">
                        <mxPoint x="-190" y="540" as="sourcePoint"/>
                        <mxPoint x="-140" y="490" as="targetPoint"/>
                    </mxGeometry>
                </mxCell>
                <mxCell id="36" value="" style="endArrow=classic;html=1;strokeWidth=3;exitX=1;exitY=0.5;exitDx=0;exitDy=0;entryX=0.375;entryY=0;entryDx=0;entryDy=0;fillColor=#e3c800;strokeColor=#B09500;" edge="1" parent="1" source="10" target="30">
                    <mxGeometry width="50" height="50" relative="1" as="geometry">
                        <mxPoint x="-190" y="540" as="sourcePoint"/>
                        <mxPoint x="-140" y="490" as="targetPoint"/>
                    </mxGeometry>
                </mxCell>
                <mxCell id="37" value="" style="rounded=0;whiteSpace=wrap;html=1;fillColor=#6d8764;fontColor=#ffffff;strokeColor=#3A5431;" vertex="1" parent="1">
                    <mxGeometry x="-400" y="960" width="280" height="190" as="geometry"/>
                </mxCell>
                <mxCell id="38" value="" style="endArrow=classic;html=1;strokeWidth=3;exitX=0.5;exitY=1;exitDx=0;exitDy=0;entryX=0.463;entryY=-0.044;entryDx=0;entryDy=0;entryPerimeter=0;fillColor=#e3c800;strokeColor=#B09500;" edge="1" parent="1" source="31" target="37">
                    <mxGeometry width="50" height="50" relative="1" as="geometry">
                        <mxPoint x="-190" y="740" as="sourcePoint"/>
                        <mxPoint x="-140" y="690" as="targetPoint"/>
                    </mxGeometry>
                </mxCell>
            </root>
        </mxGraphModel>
    </diagram>
</mxfile>